<svg id="Capa_1" enable-background="new 0 0 512 512" height="512" viewBox="0 0 512 512" width="512" xmlns="http://www.w3.org/2000/svg" xmlns:xlink="http://www.w3.org/1999/xlink"><linearGradient id="SVGID_1_" gradientUnits="userSpaceOnUse" x1="244.202" x2="244.202" y1="512" y2="23.601"><stop offset="0" stop-color="#fd3a84"/><stop offset="1" stop-color="#ffa68d"/></linearGradient><linearGradient id="SVGID_2_" gradientUnits="userSpaceOnUse" x1="376" x2="376" y1="272" y2="0"><stop offset="0" stop-color="#ffc2cc"/><stop offset="1" stop-color="#fff2f4"/></linearGradient><g id="Night_2_"><g><g><path d="m484.043 345.403c-4.453-4.438-11.133-5.669-16.787-3.091-29.004 13.067-60.059 19.688-92.256 19.688-124.072 0-225-100.928-225-225 0-32.388 6.709-63.398 19.922-92.139 2.607-5.684 1.436-12.378-2.959-16.816-4.365-4.453-11.104-5.669-16.787-3.149-91.231 40.854-150.176 131.967-150.176 232.104 0 140.61 114.404 255 255 255 99.697 0 190.811-58.799 232.061-149.81 2.578-5.683 1.377-12.363-3.018-16.787z" fill="url(#SVGID_1_)"/></g></g><g><g><path d="m488.211 227 19.395-19.395c5.859-5.859 5.859-15.352 0-21.211s-15.352-5.859-21.211 0l-19.395 19.395-19.395-19.395c-5.859-5.859-15.352-5.859-21.211 0s-5.859 15.352 0 21.211l19.395 19.395-19.395 19.395c-5.859 5.859-5.859 15.352 0 21.211s15.351 5.859 21.211 0l19.395-19.395 19.395 19.395c5.859 5.859 15.351 5.859 21.211 0 5.859-5.859 5.859-15.352 0-21.211zm-113.211-167h-45v-45c0-8.291-6.709-15-15-15s-15 6.709-15 15v45h-45c-8.291 0-15 6.709-15 15s6.709 15 15 15h45v45c0 8.291 6.709 15 15 15s15-6.709 15-15v-45h45c8.291 0 15-6.709 15-15s-6.709-15-15-15z" fill="url(#SVGID_2_)"/></g></g></g></svg>